<svg xmlns="http://www.w3.org/2000/svg" height="16" width="16" viewBox="0 -960 960 960">
    <linearGradient id="grad" x1="0%" y1="0%" x2="100%" y2="100%">
        <stop offset="0%" style="stop-color:rgb(0,255,255);stop-opacity:1"/>
        <stop offset="100%" style="stop-color:rgb(255,0,255);stop-opacity:1"/>
    </linearGradient>
    <path fill="url(#grad)"
          d="M227-346q-16-30-25.5-63.5T192-480q0-121
            85-206t209-82l-57-57 51-51 144
            144-144 144-51-51 57-57q-94-2-158
            62t-64 154q0 22 4 42t12 39l-53
            53ZM480-84 336-228l144-144 51
            51-57 57q94 2 158-62t64-154q0-22-4-42t-12-39l53-53q16
            30 25.5 63.5T768-480q0 120-85 205.5T474-192l57 57-51 51Z"/>
</svg>