<svg width="16" height="16" xmlns="http://www.w3.org/2000/svg"
     viewBox="0 0 16 16">
    <linearGradient id="grad" x1="0%" y1="0%" x2="100%" y2="100%">
        <stop offset="0%" style="stop-color:rgb(0,255,255);stop-opacity:1"/>
        <stop offset="100%" style="stop-color:rgb(255,0,255);stop-opacity:1"/>
    </linearGradient>
    <path fill="url(#grad)"
          d="M14.5 8A6.5 6.5 0 1 1 1.5 8a6.5 6.5 0 1 1 13
            0zM0 8a8 8 0 1 0 16 0A8 8 0 1 0 0 8zM7.25
            3.75V8c0 0.25 0.125 0.484375 0.334375 0.625l3 2c0.34375
            0.23125 0.809375 0.1375
            1.040625-0.209375s0.1375-0.809375-0.209375-1.040625L8.75
            7.6V3.75c0-0.415625-0.334375-0.75-0.75-0.75s-0.75 0.334375-0.75 0.75z"/>
</svg>