<svg xmlns="http://www.w3.org/2000/svg" width="16" height="16" viewBox="0 0 448 512"
     fill="#e8eaed">
    <linearGradient id="grad" x1="0%" y1="0%" x2="100%" y2="100%">
        <stop offset="0%" style="stop-color:rgb(255,0,127);stop-opacity:1"/>
        <stop offset="100%" style="stop-color:rgb(0,127,255);stop-opacity:1"/>
    </linearGradient>
    <path fill="url(#grad)"
          d="M246.6 41.4c-12.5-12.5-32.8-12.5-45.3 0l-160 160c-12.5 12.5-12.5 32.8 0 45.3s32.8 12.5 45.3 0L224 109.3 361.4 246.6c12.5 12.5 32.8 12.5 45.3 0s12.5-32.8 0-45.3l-160-160zm160 352l-160-160c-12.5-12.5-32.8-12.5-45.3 0l-160 160c-12.5 12.5-12.5 32.8 0 45.3s32.8 12.5 45.3 0L224 301.3 361.4 438.6c12.5 12.5 32.8 12.5 45.3 0s12.5-32.8 0-45.3z"/>
</svg>