<svg xmlns="http://www.w3.org/2000/svg" width="16" height="16" viewBox="0 0 16 16">
    <linearGradient id="grad" x1="0%" y1="0%" x2="100%" y2="100%">
        <stop offset="0%" style="stop-color:rgb(0,127,255);stop-opacity:1"/>
        <stop offset="100%" style="stop-color:rgb(255,0,127);stop-opacity:1"/>
    </linearGradient>
    <path fill="url(#grad)" d="M14.70625 8.70625c0.390625-0.390625
        0.390625-1.025 0-1.415625l-5-5c-0.390625-0.390625-1.025-0.390625-1.415625
        0s-0.390625 1.025 0 1.415625L12.584375 8 8.29375
        12.29375c-0.390625 0.390625-0.390625 1.025 0
        1.415625s1.025 0.390625 1.415625 0l5-5zm-11
        5l5-5c0.390625-0.390625 0.390625-1.025
        0-1.415625l-5-5c-0.390625-0.390625-1.025-0.390625-1.415625
        0s-0.390625 1.025 0 1.415625L6.584375 8 2.29375
        12.29375c-0.390625 0.390625-0.390625 1.025 0
        1.415625s1.025 0.390625 1.415625 0z"/>
</svg>