<svg xmlns="http://www.w3.org/2000/svg" width="16" height="16" viewBox="0 0 16 16">
    <linearGradient id="grad" x1="0%" y1="0%" x2="100%" y2="100%">
        <stop offset="0%" style="stop-color:rgb(255,0,127);stop-opacity:1"/>
        <stop offset="100%" style="stop-color:rgb(0,127,255);stop-opacity:1"/>
    </linearGradient>
    <path fill="url(#grad)" d="M1.29375 7.29375c-0.390625 0.390625-0.390625 1.025 0
        1.415625l5 5c0.390625 0.390625 1.025 0.390625
        1.415625 0s0.390625-1.025 0-1.415625L3.415625
        8 7.70625 3.70625c0.390625-0.390625
        0.390625-1.025 0-1.415625s-1.025-0.390625-1.415625
        0l-5 5zm11-5l-5
        5c-0.390625 0.390625-0.390625 1.025 0 1.415625l5
        5c0.390625 0.390625 1.025 0.390625 1.415625
        0s0.390625-1.025 0-1.415625L9.415625 8 13.70625
        3.70625c0.390625-0.390625 0.390625-1.025
        0-1.415625s-1.025-0.390625-1.415625 0z"/>
</svg>